<?xml version="1.0" standalone="no"?><!DOCTYPE svg PUBLIC "-//W3C//DTD SVG 1.1//EN" "http://www.w3.org/Graphics/SVG/1.1/DTD/svg11.dtd"><svg t="1686881452411" class="icon" viewBox="0 0 1024 1024" version="1.1" xmlns="http://www.w3.org/2000/svg" p-id="1205" xmlns:xlink="http://www.w3.org/1999/xlink" width="389" height="389"><path d="M887.1 100.7c-13.6-9-41.6-24.4-77-26.1-2.1-0.1-4.2-0.2-6.3-0.2-26.4 0-49.3 8.1-64.6 15.2-4.8-5.7-12.7-11.7-23.1-11.7-7 0-14 2.7-20.8 7.9-2 1.5-3.3 3.7-3.8 6.2-4.1 22.2-17.7 81-34.2 102.5-8.9-3.3-15.7-4.9-16.5-3.5l-14.5 25.1c4.3 1.3 8.7 2.6 13 4.1-0.8 3.4-0.9 6.6-0.1 9.8 2 7.9 8.6 12.5 13.7 13.9 0.9 0.3 1.9 0.4 2.8 0.4 1.9 0 3.8-0.5 5.4-1.6 0.7-0.4 4.9-3.2 11.2-8.5 6.6 3.3 13 6.9 19.2 10.6l10.6-18.4c2.1-3.8-1.9-8.6-8.6-13.6 10-11.8 20.9-27.2 30.2-46.6 1.4 1 2.6 1.8 3.3 2.3 13.6 9 41.6 24.4 77 26.1 2.1 0.1 4.3 0.2 6.5 0.2 33.7 0 61.4-12.6 74.8-20.1 5.7-3.2 34-19.7 34.8-34.7 1.1-15.8-27.3-35.5-33-39.3z" fill="#7DC457" p-id="1206"></path><path d="M813.4 683.3c70.9-194.9-32.2-465.6-199.2-458.5-137.1 5.8-288.8 49.4-359.3 244.3-13.2 36.5-23.9 70.7-29.8 106.7-9.6 58.5-121.4 100.8-121.4 142C103.6 839 277.4 947.2 438 949.5c25.6 0.4 50.6-2.1 74.8-7.2 0.8-0.2 1.5-0.3 2.3-0.4 125.6-15.4 245.4-113.2 298.3-258.6z" fill="#FFB743" p-id="1207"></path><path d="M336.9 649.8m-26.7 0a26.7 26.7 0 1 0 53.4 0 26.7 26.7 0 1 0-53.4 0Z" fill="#FF7D4A" p-id="1208"></path><path d="M391.4 761.8m-26.7 0a26.7 26.7 0 1 0 53.4 0 26.7 26.7 0 1 0-53.4 0Z" fill="#FF7D4A" p-id="1209"></path><path d="M388.9 699.8m-13.1 0a13.1 13.1 0 1 0 26.2 0 13.1 13.1 0 1 0-26.2 0Z" fill="#FF7D4A" p-id="1210"></path><path d="M468.6 842m-13.1 0a13.1 13.1 0 1 0 26.2 0 13.1 13.1 0 1 0-26.2 0Z" fill="#FF7D4A" p-id="1211"></path><path d="M356.6 848c-1.9-77.6-34.1-147.7-85.2-198.8 8.3-6.7 13.6-17 13.6-28.6 0-20.3-16.5-36.8-36.8-36.8-14.7 0-27.5 8.7-33.3 21.2-0.7-0.4-1.4-0.9-2.2-1.3-31.4 44.6-109.1 79.7-109.1 114.1-0.1 97.8 113.2 187.2 241.3 219.2 1.1-3.7 2.1-7.5 3.1-11.3 2.8 0.6 5.7 1 8.6 1 21.7 0 39.3-17.6 39.3-39.3 0-21.8-17.6-39.4-39.3-39.4z" fill="#FF7D4A" p-id="1212"></path><path d="M917.7 113.3c-6.5-7.2-15.2-14.4-25-21-14.4-9.6-44.3-25.9-82.1-27.8-2.2-0.1-4.5-0.2-6.7-0.2-20.4 0-42 4.7-62.3 13.3-6.5-5.6-15.1-9.7-25.4-9.7-9.3 0-18.3 3.4-27 10-3.9 3-6.6 7.4-7.5 12.3 0 0.2-4 21.7-10.8 45.5-7 24.8-13.3 38.9-17.7 46.7-8.3-2.6-16.8-3.8-21 3.6l-10.6 18.3c-29.4-7.7-59.9-10.6-90.9-8.6-38.5 2.5-76.8 12.5-113.8 29.6-5.1 2.3-7.3 8.3-4.9 13.4 2.3 5.1 8.3 7.3 13.4 4.9 66.1-30.6 137.1-36.5 201.5-16.9 0.1 0 0.3 0.1 0.4 0.1l5.7 1.8c0.4 0.1 0.9 0.3 1.3 0.5 1.9 0.6 3.8 1.3 5.6 2 2.2 0.8 4.4 1.6 6.5 2.5l3 1.2c1.1 0.4 2.1 0.9 3.2 1.3 1.4 0.6 2.7 1.2 4.1 1.8 0.6 0.3 1.2 0.5 1.8 0.8 1.7 0.8 3.4 1.5 5 2.3 0.1 0 0.2 0.1 0.3 0.1 7.7 3.7 15.3 7.8 22.6 12.3 0.2 0.1 0.4 0.2 0.5 0.3 54.1 33 95.9 85.3 120.3 151.5 31.3 84.9 30.1 182.4-3.4 274.4-50.1 137.6-164 236.5-290.3 252-1.1 0.1-2.1 0.3-3.1 0.5-23.8 5-48.2 7.3-72.6 7C274 936.8 113.4 827 113.5 717.5c0-16 17.3-35 35.5-55.2 22-24.3 47-51.9 52.5-85.2l1.1-6.6c5.4-33.4 11.1-67.9 23.2-101.2 31-85 87-157.1 157.9-202.8 4.7-3 6-9.3 3-13.9-3-4.7-9.3-6-13.9-3-74.4 48.3-133.3 123.9-165.8 213-12.8 35.2-18.6 70.6-24.2 104.9l-1.1 6.6c-4.5 27.4-26.4 51.6-47.5 74.9-21 23.1-40.7 45-40.8 68.7 0 31.3 10.5 62.5 31.4 92.7 18.9 27.4 46.6 53.8 80 76.1 32.4 21.7 70.5 39.8 110 52.4 41.2 13.1 82.5 20 122.9 20.6h4.9c24.2 0 48.4-2.5 72-7.4 0.5-0.1 1-0.2 1.5-0.2 133.7-16.4 254.1-120.5 306.7-265.2 35.1-96.5 36.3-198.9 3.4-288.3-16.1-43.7-39.5-81.9-69.5-113.6-15.7-16.6-32.9-31-51.5-43.2l5.8-10c0-0.1 0.1-0.1 0.1-0.2 2-3.6 4-10.8-3.6-19.5 6.8-8.8 13.8-19 20.2-31 15.9 9.6 42.9 22.3 76 23.9 2.3 0.1 4.6 0.2 7 0.2 36 0 65.4-13.4 79.7-21.4 9.8-5.5 18.6-11.6 25.3-17.8 9.6-8.8 14.2-16.8 14.6-25.2 0.6-8.6-3.5-17.3-12.6-27.3zM701.5 94c5.6-4.3 10.5-5.8 14.7-5.8 11.6 0 18 11.8 18 11.8-7.3 45.1-25.5 77.8-42.5 99.6-0.9-0.6-1.9-1.1-2.9-1.7-5-2.8-10.7-5.6-16.4-8.1 17.7-33.9 29.1-95.8 29.1-95.8z m-33.6 126.9c-0.3-0.1-0.6-0.3-0.9-0.4-2.3-1-4.6-2.1-7-3.1-1.4-0.6-2.7-1.1-4.1-1.7-0.8-0.3-1.6-0.6-2.4-1-2.2-0.9-4.5-1.7-6.7-2.5-1.8-0.6-3.6-1.3-5.4-1.9l5.1-8.8c5 1.4 13.5 4.5 23 9.1 13.4 6.4 19.8 11.3 22.3 13.9l-3.8 6.6c-6.5-3.6-13.2-7-20.1-10.2z m142.9-36c-2 0-4 0-6-0.1-26.5-1.3-50.3-10.9-68.1-22 7.5-17.1 13.7-36.9 17.3-59.5 0.5-2.9 0.3-5.9-0.5-8.7 14.8-5.8 32-10 50.3-10 1.9 0 3.8 0 5.8 0.1 56.9 2.7 101.2 44 100.7 55-0.5 10.1-45.2 45.2-99.5 45.2z" fill="#420B0D" p-id="1213"></path></svg>